G04 #@! TF.FileFunction,Soldermask,Bot*
%FSLAX46Y46*%
G04 Gerber Fmt 4.6, Leading zero omitted, Abs format (unit mm)*
G04 Created by KiCad (PCBNEW 4.0.2-stable) date Fri May 27 18:17:46 2016*
%MOMM*%
G01*
G04 APERTURE LIST*
%ADD10C,0.100000*%
%ADD11R,2.432000X2.127200*%
%ADD12O,2.432000X2.127200*%
%ADD13R,1.650000X1.400000*%
%ADD14R,1.200100X1.200100*%
%ADD15R,1.700000X1.100000*%
%ADD16R,1.100000X1.700000*%
%ADD17C,2.800000*%
%ADD18R,0.850000X1.850000*%
G04 APERTURE END LIST*
D10*
D11*
X76500000Y-45370000D03*
D12*
X76500000Y-42830000D03*
X76500000Y-40290000D03*
X76500000Y-37750000D03*
X76500000Y-35210000D03*
X76500000Y-32670000D03*
D13*
X59500000Y-38000000D03*
X59500000Y-40000000D03*
D14*
X65000760Y-27300000D03*
X65000760Y-29200000D03*
X63001780Y-28250000D03*
D15*
X75000000Y-22000000D03*
X75000000Y-23900000D03*
X55000000Y-22050000D03*
X55000000Y-23950000D03*
D16*
X63800000Y-45000000D03*
X65700000Y-45000000D03*
D17*
X60000000Y-23250000D03*
X70000000Y-23250000D03*
X65000000Y-23250000D03*
X62500000Y-54500000D03*
X67500000Y-54500000D03*
D18*
X61850000Y-36000000D03*
X62500000Y-36000000D03*
X63150000Y-36000000D03*
X63800000Y-36000000D03*
X64450000Y-36000000D03*
X65100000Y-36000000D03*
X65750000Y-36000000D03*
X66400000Y-36000000D03*
X67050000Y-36000000D03*
X67700000Y-36000000D03*
X67700000Y-41900000D03*
X67050000Y-41900000D03*
X66400000Y-41900000D03*
X65750000Y-41900000D03*
X65100000Y-41900000D03*
X64450000Y-41900000D03*
X63800000Y-41900000D03*
X63150000Y-41900000D03*
X62500000Y-41900000D03*
X61850000Y-41900000D03*
M02*
