M48
INCH,TZ
T1C0.016
T2C0.039
T3C0.040
T4C0.047
%
G90
G05
T1
X21654Y-7874
X24409Y-12598
X24409Y-13386
X29134Y-15305
X29331Y-15551
X29528Y-7874
T2
X22441Y-12992
X22441Y-17717
X23622Y-19980
X24213Y-11122
T3
X30118Y-12862
X30118Y-13862
X30118Y-14862
X30118Y-15862
X30118Y-16862
X30118Y-17862
T4
X23622Y-9154
X24606Y-21457
X25591Y-9154
X26575Y-21457
X27559Y-9154
T0
M30
