G04 #@! TF.FileFunction,Copper,L1,Top,Signal*
%FSLAX46Y46*%
G04 Gerber Fmt 4.6, Leading zero omitted, Abs format (unit mm)*
G04 Created by KiCad (PCBNEW 4.0.2-stable) date Fri May 27 18:17:46 2016*
%MOMM*%
G01*
G04 APERTURE LIST*
%ADD10C,0.100000*%
%ADD11R,2.032000X1.727200*%
%ADD12O,2.032000X1.727200*%
%ADD13R,1.250000X1.000000*%
%ADD14R,2.500000X1.000000*%
%ADD15R,3.657600X2.032000*%
%ADD16R,1.016000X2.032000*%
%ADD17R,1.800860X1.597660*%
%ADD18R,1.524000X2.032000*%
%ADD19C,2.400000*%
%ADD20C,2.000000*%
%ADD21C,0.600000*%
%ADD22C,1.000000*%
%ADD23C,0.250000*%
%ADD24C,0.254000*%
G04 APERTURE END LIST*
D10*
D11*
X76500000Y-45370000D03*
D12*
X76500000Y-42830000D03*
X76500000Y-40290000D03*
X76500000Y-37750000D03*
X76500000Y-35210000D03*
X76500000Y-32670000D03*
D13*
X70250000Y-42000000D03*
X70250000Y-40000000D03*
D14*
X59000000Y-39500000D03*
X59000000Y-42500000D03*
D15*
X65000000Y-35500000D03*
D16*
X65000000Y-42104000D03*
X67286000Y-42104000D03*
X62714000Y-42104000D03*
D17*
X75000000Y-21580140D03*
X75000000Y-24419860D03*
X55000000Y-21580140D03*
X55000000Y-24419860D03*
D18*
X70000000Y-47000000D03*
X66698000Y-47000000D03*
X63250000Y-47000000D03*
X59948000Y-47000000D03*
D19*
X60000000Y-23250000D03*
X70000000Y-23250000D03*
X65000000Y-23250000D03*
X62500000Y-54500000D03*
X67500000Y-54500000D03*
D20*
X57000000Y-45000000D03*
X61500000Y-28250000D03*
X57000000Y-33000000D03*
X60000000Y-50750000D03*
D21*
X75000000Y-20000000D03*
X55000000Y-20000000D03*
X74500000Y-39500000D03*
X62000000Y-32000000D03*
X62000000Y-34000000D03*
X74000000Y-38875010D03*
D22*
X70250000Y-42000000D02*
X67390000Y-42000000D01*
X67390000Y-42000000D02*
X67286000Y-42104000D01*
X70000000Y-47000000D02*
X70000000Y-42250000D01*
X70000000Y-42250000D02*
X70250000Y-42000000D01*
X63250000Y-47000000D02*
X67286000Y-42964000D01*
X57999999Y-33999999D02*
X57000000Y-33000000D01*
X58250000Y-34250000D02*
X57999999Y-33999999D01*
X58250000Y-39500000D02*
X58250000Y-34250000D01*
X59948000Y-47000000D02*
X59948000Y-50698000D01*
X59948000Y-50698000D02*
X60000000Y-50750000D01*
X65000000Y-42104000D02*
X65000000Y-40088000D01*
X65000000Y-40088000D02*
X64412000Y-39500000D01*
X64412000Y-39500000D02*
X58250000Y-39500000D01*
X61944000Y-44750000D02*
X62862000Y-44750000D01*
X62862000Y-44750000D02*
X65000000Y-42612000D01*
X65000000Y-42612000D02*
X65000000Y-42104000D01*
X59948000Y-47000000D02*
X59948000Y-46746000D01*
X59948000Y-46746000D02*
X61944000Y-44750000D01*
D23*
X75000000Y-21001020D02*
X75000000Y-20000000D01*
X55000000Y-21001020D02*
X55000000Y-20000000D01*
X74500000Y-39500000D02*
X74500000Y-40982400D01*
X74500000Y-40982400D02*
X76347600Y-42830000D01*
X76347600Y-42830000D02*
X76500000Y-42830000D01*
X76347600Y-42790000D02*
X76500000Y-42790000D01*
X62000000Y-34000000D02*
X62000000Y-32000000D01*
D22*
X67500000Y-54500000D02*
X72750000Y-49250000D01*
X72750000Y-49250000D02*
X72750000Y-26750000D01*
X72750000Y-26750000D02*
X70000000Y-24000000D01*
X70000000Y-24000000D02*
X70000000Y-23250000D01*
X66698000Y-47000000D02*
X66698000Y-53698000D01*
X66698000Y-53698000D02*
X67500000Y-54500000D01*
D23*
X74750000Y-36767600D02*
X75000000Y-36517600D01*
X74000000Y-38875010D02*
X74299999Y-38575011D01*
X75000000Y-36517600D02*
X76347600Y-35170000D01*
X74299999Y-38575011D02*
X74299999Y-37217601D01*
X74299999Y-37217601D02*
X75000000Y-36517600D01*
X76347600Y-35170000D02*
X76500000Y-35170000D01*
D24*
G36*
X54065162Y-19813201D02*
X54064877Y-20140398D01*
X53864253Y-20178148D01*
X53648129Y-20317220D01*
X53503139Y-20529420D01*
X53452130Y-20781310D01*
X53452130Y-22378970D01*
X53496408Y-22614287D01*
X53635480Y-22830411D01*
X53847680Y-22975401D01*
X53949259Y-22995971D01*
X53739871Y-23082703D01*
X53561243Y-23261332D01*
X53464570Y-23494721D01*
X53464570Y-24134110D01*
X53623320Y-24292860D01*
X54873000Y-24292860D01*
X54873000Y-24272860D01*
X55127000Y-24272860D01*
X55127000Y-24292860D01*
X56376680Y-24292860D01*
X56535430Y-24134110D01*
X56535430Y-23613403D01*
X58164682Y-23613403D01*
X58443455Y-24288086D01*
X58959199Y-24804730D01*
X59633395Y-25084681D01*
X60363403Y-25085318D01*
X61038086Y-24806545D01*
X61554730Y-24290801D01*
X61834681Y-23616605D01*
X61834683Y-23613403D01*
X63164682Y-23613403D01*
X63443455Y-24288086D01*
X63959199Y-24804730D01*
X64633395Y-25084681D01*
X65363403Y-25085318D01*
X66038086Y-24806545D01*
X66554730Y-24290801D01*
X66834681Y-23616605D01*
X66835318Y-22886597D01*
X66556545Y-22211914D01*
X66040801Y-21695270D01*
X65366605Y-21415319D01*
X64636597Y-21414682D01*
X63961914Y-21693455D01*
X63445270Y-22209199D01*
X63165319Y-22883395D01*
X63164682Y-23613403D01*
X61834683Y-23613403D01*
X61835318Y-22886597D01*
X61556545Y-22211914D01*
X61040801Y-21695270D01*
X60366605Y-21415319D01*
X59636597Y-21414682D01*
X58961914Y-21693455D01*
X58445270Y-22209199D01*
X58165319Y-22883395D01*
X58164682Y-23613403D01*
X56535430Y-23613403D01*
X56535430Y-23494721D01*
X56438757Y-23261332D01*
X56260129Y-23082703D01*
X56054319Y-22997454D01*
X56135747Y-22982132D01*
X56351871Y-22843060D01*
X56496861Y-22630860D01*
X56547870Y-22378970D01*
X56547870Y-20781310D01*
X56503592Y-20545993D01*
X56364520Y-20329869D01*
X56152320Y-20184879D01*
X55934878Y-20140846D01*
X55935162Y-19814833D01*
X55891846Y-19710000D01*
X74108015Y-19710000D01*
X74065162Y-19813201D01*
X74064877Y-20140398D01*
X73864253Y-20178148D01*
X73648129Y-20317220D01*
X73503139Y-20529420D01*
X73452130Y-20781310D01*
X73452130Y-22378970D01*
X73496408Y-22614287D01*
X73635480Y-22830411D01*
X73847680Y-22975401D01*
X73949259Y-22995971D01*
X73739871Y-23082703D01*
X73561243Y-23261332D01*
X73464570Y-23494721D01*
X73464570Y-24134110D01*
X73623320Y-24292860D01*
X74873000Y-24292860D01*
X74873000Y-24272860D01*
X75127000Y-24272860D01*
X75127000Y-24292860D01*
X76376680Y-24292860D01*
X76535430Y-24134110D01*
X76535430Y-23494721D01*
X76438757Y-23261332D01*
X76260129Y-23082703D01*
X76054319Y-22997454D01*
X76135747Y-22982132D01*
X76351871Y-22843060D01*
X76496861Y-22630860D01*
X76547870Y-22378970D01*
X76547870Y-20781310D01*
X76503592Y-20545993D01*
X76364520Y-20329869D01*
X76152320Y-20184879D01*
X75934878Y-20140846D01*
X75935162Y-19814833D01*
X75891846Y-19710000D01*
X77290000Y-19710000D01*
X77290000Y-31334559D01*
X76861913Y-31184816D01*
X76627000Y-31329076D01*
X76627000Y-32543000D01*
X76647000Y-32543000D01*
X76647000Y-32797000D01*
X76627000Y-32797000D01*
X76627000Y-32817000D01*
X76373000Y-32817000D01*
X76373000Y-32797000D01*
X75013783Y-32797000D01*
X74892642Y-33029026D01*
X74895291Y-33044791D01*
X75149268Y-33572036D01*
X75565069Y-33943539D01*
X75255585Y-34150330D01*
X74930729Y-34636511D01*
X74816655Y-35210000D01*
X74885698Y-35557100D01*
X73885000Y-36557798D01*
X73885000Y-32310974D01*
X74892642Y-32310974D01*
X75013783Y-32543000D01*
X76373000Y-32543000D01*
X76373000Y-31329076D01*
X76138087Y-31184816D01*
X75585680Y-31378046D01*
X75149268Y-31767964D01*
X74895291Y-32295209D01*
X74892642Y-32310974D01*
X73885000Y-32310974D01*
X73885000Y-26750000D01*
X73798603Y-26315654D01*
X73552566Y-25947434D01*
X72310742Y-24705610D01*
X73464570Y-24705610D01*
X73464570Y-25344999D01*
X73561243Y-25578388D01*
X73739871Y-25757017D01*
X73973260Y-25853690D01*
X74714250Y-25853690D01*
X74873000Y-25694940D01*
X74873000Y-24546860D01*
X75127000Y-24546860D01*
X75127000Y-25694940D01*
X75285750Y-25853690D01*
X76026740Y-25853690D01*
X76260129Y-25757017D01*
X76438757Y-25578388D01*
X76535430Y-25344999D01*
X76535430Y-24705610D01*
X76376680Y-24546860D01*
X75127000Y-24546860D01*
X74873000Y-24546860D01*
X73623320Y-24546860D01*
X73464570Y-24705610D01*
X72310742Y-24705610D01*
X71654840Y-24049708D01*
X71834681Y-23616605D01*
X71835318Y-22886597D01*
X71556545Y-22211914D01*
X71040801Y-21695270D01*
X70366605Y-21415319D01*
X69636597Y-21414682D01*
X68961914Y-21693455D01*
X68445270Y-22209199D01*
X68165319Y-22883395D01*
X68164682Y-23613403D01*
X68443455Y-24288086D01*
X68959199Y-24804730D01*
X69370304Y-24975436D01*
X71615000Y-27220132D01*
X71615000Y-48779868D01*
X67833000Y-52561868D01*
X67833000Y-48530565D01*
X67911441Y-48480090D01*
X68056431Y-48267890D01*
X68107440Y-48016000D01*
X68107440Y-45984000D01*
X68063162Y-45748683D01*
X67924090Y-45532559D01*
X67711890Y-45387569D01*
X67460000Y-45336560D01*
X66518572Y-45336560D01*
X68088566Y-43766566D01*
X68184132Y-43623541D01*
X68245441Y-43584090D01*
X68390431Y-43371890D01*
X68438402Y-43135000D01*
X68865000Y-43135000D01*
X68865000Y-45469435D01*
X68786559Y-45519910D01*
X68641569Y-45732110D01*
X68590560Y-45984000D01*
X68590560Y-48016000D01*
X68634838Y-48251317D01*
X68773910Y-48467441D01*
X68986110Y-48612431D01*
X69238000Y-48663440D01*
X70762000Y-48663440D01*
X70997317Y-48619162D01*
X71213441Y-48480090D01*
X71358431Y-48267890D01*
X71409440Y-48016000D01*
X71409440Y-45984000D01*
X71365162Y-45748683D01*
X71226090Y-45532559D01*
X71135000Y-45470320D01*
X71135000Y-43087279D01*
X71326441Y-42964090D01*
X71471431Y-42751890D01*
X71522440Y-42500000D01*
X71522440Y-41500000D01*
X71478162Y-41264683D01*
X71339090Y-41048559D01*
X71270994Y-41002031D01*
X71413327Y-40859698D01*
X71510000Y-40626309D01*
X71510000Y-40285750D01*
X71351250Y-40127000D01*
X70377000Y-40127000D01*
X70377000Y-40147000D01*
X70123000Y-40147000D01*
X70123000Y-40127000D01*
X69148750Y-40127000D01*
X68990000Y-40285750D01*
X68990000Y-40626309D01*
X69086673Y-40859698D01*
X69091975Y-40865000D01*
X68399480Y-40865000D01*
X68397162Y-40852683D01*
X68258090Y-40636559D01*
X68045890Y-40491569D01*
X67794000Y-40440560D01*
X66778000Y-40440560D01*
X66542683Y-40484838D01*
X66326559Y-40623910D01*
X66181569Y-40836110D01*
X66143457Y-41024314D01*
X66135000Y-40979371D01*
X66135000Y-40088000D01*
X66117496Y-40000000D01*
X66048604Y-39653655D01*
X65861538Y-39373691D01*
X68990000Y-39373691D01*
X68990000Y-39714250D01*
X69148750Y-39873000D01*
X70123000Y-39873000D01*
X70123000Y-39023750D01*
X70377000Y-39023750D01*
X70377000Y-39873000D01*
X71351250Y-39873000D01*
X71510000Y-39714250D01*
X71510000Y-39373691D01*
X71413327Y-39140302D01*
X71234699Y-38961673D01*
X71001310Y-38865000D01*
X70535750Y-38865000D01*
X70377000Y-39023750D01*
X70123000Y-39023750D01*
X69964250Y-38865000D01*
X69498690Y-38865000D01*
X69265301Y-38961673D01*
X69086673Y-39140302D01*
X68990000Y-39373691D01*
X65861538Y-39373691D01*
X65802566Y-39285434D01*
X65214566Y-38697434D01*
X65016122Y-38564838D01*
X64846346Y-38451397D01*
X64412000Y-38365000D01*
X60311431Y-38365000D01*
X60250000Y-38352560D01*
X59385000Y-38352560D01*
X59385000Y-34250000D01*
X59298603Y-33815654D01*
X59052566Y-33447434D01*
X58634975Y-33029843D01*
X58635284Y-32676205D01*
X58432391Y-32185167D01*
X61064838Y-32185167D01*
X61206883Y-32528943D01*
X61240000Y-32562118D01*
X61240000Y-33437537D01*
X61207808Y-33469673D01*
X61065162Y-33813201D01*
X61064838Y-34185167D01*
X61206883Y-34528943D01*
X61469673Y-34792192D01*
X61813201Y-34934838D01*
X62185167Y-34935162D01*
X62523760Y-34795259D01*
X62523760Y-36516000D01*
X62568038Y-36751317D01*
X62707110Y-36967441D01*
X62919310Y-37112431D01*
X63171200Y-37163440D01*
X66828800Y-37163440D01*
X67064117Y-37119162D01*
X67280241Y-36980090D01*
X67425231Y-36767890D01*
X67476240Y-36516000D01*
X67476240Y-34484000D01*
X67431962Y-34248683D01*
X67292890Y-34032559D01*
X67080690Y-33887569D01*
X66828800Y-33836560D01*
X63171200Y-33836560D01*
X62935883Y-33880838D01*
X62935104Y-33881339D01*
X62935162Y-33814833D01*
X62793117Y-33471057D01*
X62760000Y-33437882D01*
X62760000Y-32562463D01*
X62792192Y-32530327D01*
X62934838Y-32186799D01*
X62935162Y-31814833D01*
X62793117Y-31471057D01*
X62530327Y-31207808D01*
X62186799Y-31065162D01*
X61814833Y-31064838D01*
X61471057Y-31206883D01*
X61207808Y-31469673D01*
X61065162Y-31813201D01*
X61064838Y-32185167D01*
X58432391Y-32185167D01*
X58386894Y-32075057D01*
X57927363Y-31614722D01*
X57326648Y-31365284D01*
X56676205Y-31364716D01*
X56075057Y-31613106D01*
X55614722Y-32072637D01*
X55365284Y-32673352D01*
X55364716Y-33323795D01*
X55613106Y-33924943D01*
X56072637Y-34385278D01*
X56673352Y-34634716D01*
X57029895Y-34635027D01*
X57115000Y-34720132D01*
X57115000Y-38938569D01*
X57102560Y-39000000D01*
X57102560Y-40000000D01*
X57146838Y-40235317D01*
X57285910Y-40451441D01*
X57498110Y-40596431D01*
X57750000Y-40647440D01*
X60250000Y-40647440D01*
X60316113Y-40635000D01*
X61760975Y-40635000D01*
X61667673Y-40728301D01*
X61571000Y-40961690D01*
X61571000Y-41818250D01*
X61729750Y-41977000D01*
X62587000Y-41977000D01*
X62587000Y-41957000D01*
X62841000Y-41957000D01*
X62841000Y-41977000D01*
X62861000Y-41977000D01*
X62861000Y-42231000D01*
X62841000Y-42231000D01*
X62841000Y-42251000D01*
X62587000Y-42251000D01*
X62587000Y-42231000D01*
X61729750Y-42231000D01*
X61571000Y-42389750D01*
X61571000Y-43246310D01*
X61667673Y-43479699D01*
X61826373Y-43638398D01*
X61509654Y-43701397D01*
X61273845Y-43858960D01*
X61141434Y-43947434D01*
X59752308Y-45336560D01*
X59186000Y-45336560D01*
X58950683Y-45380838D01*
X58734559Y-45519910D01*
X58589569Y-45732110D01*
X58538560Y-45984000D01*
X58538560Y-48016000D01*
X58582838Y-48251317D01*
X58721910Y-48467441D01*
X58813000Y-48529680D01*
X58813000Y-49624705D01*
X58614722Y-49822637D01*
X58365284Y-50423352D01*
X58364716Y-51073795D01*
X58613106Y-51674943D01*
X59072637Y-52135278D01*
X59673352Y-52384716D01*
X60323795Y-52385284D01*
X60924943Y-52136894D01*
X61385278Y-51677363D01*
X61634716Y-51076648D01*
X61635284Y-50426205D01*
X61386894Y-49825057D01*
X61083000Y-49520631D01*
X61083000Y-48530565D01*
X61161441Y-48480090D01*
X61306431Y-48267890D01*
X61357440Y-48016000D01*
X61357440Y-46941692D01*
X61840560Y-46458572D01*
X61840560Y-48016000D01*
X61884838Y-48251317D01*
X62023910Y-48467441D01*
X62236110Y-48612431D01*
X62488000Y-48663440D01*
X64012000Y-48663440D01*
X64247317Y-48619162D01*
X64463441Y-48480090D01*
X64608431Y-48267890D01*
X64659440Y-48016000D01*
X64659440Y-47195692D01*
X65288560Y-46566572D01*
X65288560Y-48016000D01*
X65332838Y-48251317D01*
X65471910Y-48467441D01*
X65563000Y-48529680D01*
X65563000Y-53698000D01*
X65649397Y-54132346D01*
X65665299Y-54156145D01*
X65664682Y-54863403D01*
X65943455Y-55538086D01*
X66459199Y-56054730D01*
X67133395Y-56334681D01*
X67863403Y-56335318D01*
X68538086Y-56056545D01*
X69054730Y-55540801D01*
X69334681Y-54866605D01*
X69335202Y-54269930D01*
X73552566Y-50052566D01*
X73657558Y-49895434D01*
X73798603Y-49684346D01*
X73885000Y-49250000D01*
X73885000Y-41403666D01*
X73962599Y-41519801D01*
X74892334Y-42449536D01*
X74816655Y-42830000D01*
X74930729Y-43403489D01*
X75255585Y-43889670D01*
X75269913Y-43899243D01*
X75248683Y-43903238D01*
X75032559Y-44042310D01*
X74887569Y-44254510D01*
X74836560Y-44506400D01*
X74836560Y-46233600D01*
X74880838Y-46468917D01*
X75019910Y-46685041D01*
X75232110Y-46830031D01*
X75484000Y-46881040D01*
X77290000Y-46881040D01*
X77290000Y-58290000D01*
X52710000Y-58290000D01*
X52710000Y-55797175D01*
X61382430Y-55797175D01*
X61505565Y-56084788D01*
X62187734Y-56344707D01*
X62917443Y-56323786D01*
X63494435Y-56084788D01*
X63617570Y-55797175D01*
X62500000Y-54679605D01*
X61382430Y-55797175D01*
X52710000Y-55797175D01*
X52710000Y-54187734D01*
X60655293Y-54187734D01*
X60676214Y-54917443D01*
X60915212Y-55494435D01*
X61202825Y-55617570D01*
X62320395Y-54500000D01*
X62679605Y-54500000D01*
X63797175Y-55617570D01*
X64084788Y-55494435D01*
X64344707Y-54812266D01*
X64323786Y-54082557D01*
X64084788Y-53505565D01*
X63797175Y-53382430D01*
X62679605Y-54500000D01*
X62320395Y-54500000D01*
X61202825Y-53382430D01*
X60915212Y-53505565D01*
X60655293Y-54187734D01*
X52710000Y-54187734D01*
X52710000Y-53202825D01*
X61382430Y-53202825D01*
X62500000Y-54320395D01*
X63617570Y-53202825D01*
X63494435Y-52915212D01*
X62812266Y-52655293D01*
X62082557Y-52676214D01*
X61505565Y-52915212D01*
X61382430Y-53202825D01*
X52710000Y-53202825D01*
X52710000Y-42785750D01*
X57115000Y-42785750D01*
X57115000Y-43126309D01*
X57211673Y-43359698D01*
X57390301Y-43538327D01*
X57623690Y-43635000D01*
X58714250Y-43635000D01*
X58873000Y-43476250D01*
X58873000Y-42627000D01*
X59127000Y-42627000D01*
X59127000Y-43476250D01*
X59285750Y-43635000D01*
X60376310Y-43635000D01*
X60609699Y-43538327D01*
X60788327Y-43359698D01*
X60885000Y-43126309D01*
X60885000Y-42785750D01*
X60726250Y-42627000D01*
X59127000Y-42627000D01*
X58873000Y-42627000D01*
X57273750Y-42627000D01*
X57115000Y-42785750D01*
X52710000Y-42785750D01*
X52710000Y-41873691D01*
X57115000Y-41873691D01*
X57115000Y-42214250D01*
X57273750Y-42373000D01*
X58873000Y-42373000D01*
X58873000Y-41523750D01*
X59127000Y-41523750D01*
X59127000Y-42373000D01*
X60726250Y-42373000D01*
X60885000Y-42214250D01*
X60885000Y-41873691D01*
X60788327Y-41640302D01*
X60609699Y-41461673D01*
X60376310Y-41365000D01*
X59285750Y-41365000D01*
X59127000Y-41523750D01*
X58873000Y-41523750D01*
X58714250Y-41365000D01*
X57623690Y-41365000D01*
X57390301Y-41461673D01*
X57211673Y-41640302D01*
X57115000Y-41873691D01*
X52710000Y-41873691D01*
X52710000Y-24705610D01*
X53464570Y-24705610D01*
X53464570Y-25344999D01*
X53561243Y-25578388D01*
X53739871Y-25757017D01*
X53973260Y-25853690D01*
X54714250Y-25853690D01*
X54873000Y-25694940D01*
X54873000Y-24546860D01*
X55127000Y-24546860D01*
X55127000Y-25694940D01*
X55285750Y-25853690D01*
X56026740Y-25853690D01*
X56260129Y-25757017D01*
X56438757Y-25578388D01*
X56535430Y-25344999D01*
X56535430Y-24705610D01*
X56376680Y-24546860D01*
X55127000Y-24546860D01*
X54873000Y-24546860D01*
X53623320Y-24546860D01*
X53464570Y-24705610D01*
X52710000Y-24705610D01*
X52710000Y-19710000D01*
X54108015Y-19710000D01*
X54065162Y-19813201D01*
X54065162Y-19813201D01*
G37*
X54065162Y-19813201D02*
X54064877Y-20140398D01*
X53864253Y-20178148D01*
X53648129Y-20317220D01*
X53503139Y-20529420D01*
X53452130Y-20781310D01*
X53452130Y-22378970D01*
X53496408Y-22614287D01*
X53635480Y-22830411D01*
X53847680Y-22975401D01*
X53949259Y-22995971D01*
X53739871Y-23082703D01*
X53561243Y-23261332D01*
X53464570Y-23494721D01*
X53464570Y-24134110D01*
X53623320Y-24292860D01*
X54873000Y-24292860D01*
X54873000Y-24272860D01*
X55127000Y-24272860D01*
X55127000Y-24292860D01*
X56376680Y-24292860D01*
X56535430Y-24134110D01*
X56535430Y-23613403D01*
X58164682Y-23613403D01*
X58443455Y-24288086D01*
X58959199Y-24804730D01*
X59633395Y-25084681D01*
X60363403Y-25085318D01*
X61038086Y-24806545D01*
X61554730Y-24290801D01*
X61834681Y-23616605D01*
X61834683Y-23613403D01*
X63164682Y-23613403D01*
X63443455Y-24288086D01*
X63959199Y-24804730D01*
X64633395Y-25084681D01*
X65363403Y-25085318D01*
X66038086Y-24806545D01*
X66554730Y-24290801D01*
X66834681Y-23616605D01*
X66835318Y-22886597D01*
X66556545Y-22211914D01*
X66040801Y-21695270D01*
X65366605Y-21415319D01*
X64636597Y-21414682D01*
X63961914Y-21693455D01*
X63445270Y-22209199D01*
X63165319Y-22883395D01*
X63164682Y-23613403D01*
X61834683Y-23613403D01*
X61835318Y-22886597D01*
X61556545Y-22211914D01*
X61040801Y-21695270D01*
X60366605Y-21415319D01*
X59636597Y-21414682D01*
X58961914Y-21693455D01*
X58445270Y-22209199D01*
X58165319Y-22883395D01*
X58164682Y-23613403D01*
X56535430Y-23613403D01*
X56535430Y-23494721D01*
X56438757Y-23261332D01*
X56260129Y-23082703D01*
X56054319Y-22997454D01*
X56135747Y-22982132D01*
X56351871Y-22843060D01*
X56496861Y-22630860D01*
X56547870Y-22378970D01*
X56547870Y-20781310D01*
X56503592Y-20545993D01*
X56364520Y-20329869D01*
X56152320Y-20184879D01*
X55934878Y-20140846D01*
X55935162Y-19814833D01*
X55891846Y-19710000D01*
X74108015Y-19710000D01*
X74065162Y-19813201D01*
X74064877Y-20140398D01*
X73864253Y-20178148D01*
X73648129Y-20317220D01*
X73503139Y-20529420D01*
X73452130Y-20781310D01*
X73452130Y-22378970D01*
X73496408Y-22614287D01*
X73635480Y-22830411D01*
X73847680Y-22975401D01*
X73949259Y-22995971D01*
X73739871Y-23082703D01*
X73561243Y-23261332D01*
X73464570Y-23494721D01*
X73464570Y-24134110D01*
X73623320Y-24292860D01*
X74873000Y-24292860D01*
X74873000Y-24272860D01*
X75127000Y-24272860D01*
X75127000Y-24292860D01*
X76376680Y-24292860D01*
X76535430Y-24134110D01*
X76535430Y-23494721D01*
X76438757Y-23261332D01*
X76260129Y-23082703D01*
X76054319Y-22997454D01*
X76135747Y-22982132D01*
X76351871Y-22843060D01*
X76496861Y-22630860D01*
X76547870Y-22378970D01*
X76547870Y-20781310D01*
X76503592Y-20545993D01*
X76364520Y-20329869D01*
X76152320Y-20184879D01*
X75934878Y-20140846D01*
X75935162Y-19814833D01*
X75891846Y-19710000D01*
X77290000Y-19710000D01*
X77290000Y-31334559D01*
X76861913Y-31184816D01*
X76627000Y-31329076D01*
X76627000Y-32543000D01*
X76647000Y-32543000D01*
X76647000Y-32797000D01*
X76627000Y-32797000D01*
X76627000Y-32817000D01*
X76373000Y-32817000D01*
X76373000Y-32797000D01*
X75013783Y-32797000D01*
X74892642Y-33029026D01*
X74895291Y-33044791D01*
X75149268Y-33572036D01*
X75565069Y-33943539D01*
X75255585Y-34150330D01*
X74930729Y-34636511D01*
X74816655Y-35210000D01*
X74885698Y-35557100D01*
X73885000Y-36557798D01*
X73885000Y-32310974D01*
X74892642Y-32310974D01*
X75013783Y-32543000D01*
X76373000Y-32543000D01*
X76373000Y-31329076D01*
X76138087Y-31184816D01*
X75585680Y-31378046D01*
X75149268Y-31767964D01*
X74895291Y-32295209D01*
X74892642Y-32310974D01*
X73885000Y-32310974D01*
X73885000Y-26750000D01*
X73798603Y-26315654D01*
X73552566Y-25947434D01*
X72310742Y-24705610D01*
X73464570Y-24705610D01*
X73464570Y-25344999D01*
X73561243Y-25578388D01*
X73739871Y-25757017D01*
X73973260Y-25853690D01*
X74714250Y-25853690D01*
X74873000Y-25694940D01*
X74873000Y-24546860D01*
X75127000Y-24546860D01*
X75127000Y-25694940D01*
X75285750Y-25853690D01*
X76026740Y-25853690D01*
X76260129Y-25757017D01*
X76438757Y-25578388D01*
X76535430Y-25344999D01*
X76535430Y-24705610D01*
X76376680Y-24546860D01*
X75127000Y-24546860D01*
X74873000Y-24546860D01*
X73623320Y-24546860D01*
X73464570Y-24705610D01*
X72310742Y-24705610D01*
X71654840Y-24049708D01*
X71834681Y-23616605D01*
X71835318Y-22886597D01*
X71556545Y-22211914D01*
X71040801Y-21695270D01*
X70366605Y-21415319D01*
X69636597Y-21414682D01*
X68961914Y-21693455D01*
X68445270Y-22209199D01*
X68165319Y-22883395D01*
X68164682Y-23613403D01*
X68443455Y-24288086D01*
X68959199Y-24804730D01*
X69370304Y-24975436D01*
X71615000Y-27220132D01*
X71615000Y-48779868D01*
X67833000Y-52561868D01*
X67833000Y-48530565D01*
X67911441Y-48480090D01*
X68056431Y-48267890D01*
X68107440Y-48016000D01*
X68107440Y-45984000D01*
X68063162Y-45748683D01*
X67924090Y-45532559D01*
X67711890Y-45387569D01*
X67460000Y-45336560D01*
X66518572Y-45336560D01*
X68088566Y-43766566D01*
X68184132Y-43623541D01*
X68245441Y-43584090D01*
X68390431Y-43371890D01*
X68438402Y-43135000D01*
X68865000Y-43135000D01*
X68865000Y-45469435D01*
X68786559Y-45519910D01*
X68641569Y-45732110D01*
X68590560Y-45984000D01*
X68590560Y-48016000D01*
X68634838Y-48251317D01*
X68773910Y-48467441D01*
X68986110Y-48612431D01*
X69238000Y-48663440D01*
X70762000Y-48663440D01*
X70997317Y-48619162D01*
X71213441Y-48480090D01*
X71358431Y-48267890D01*
X71409440Y-48016000D01*
X71409440Y-45984000D01*
X71365162Y-45748683D01*
X71226090Y-45532559D01*
X71135000Y-45470320D01*
X71135000Y-43087279D01*
X71326441Y-42964090D01*
X71471431Y-42751890D01*
X71522440Y-42500000D01*
X71522440Y-41500000D01*
X71478162Y-41264683D01*
X71339090Y-41048559D01*
X71270994Y-41002031D01*
X71413327Y-40859698D01*
X71510000Y-40626309D01*
X71510000Y-40285750D01*
X71351250Y-40127000D01*
X70377000Y-40127000D01*
X70377000Y-40147000D01*
X70123000Y-40147000D01*
X70123000Y-40127000D01*
X69148750Y-40127000D01*
X68990000Y-40285750D01*
X68990000Y-40626309D01*
X69086673Y-40859698D01*
X69091975Y-40865000D01*
X68399480Y-40865000D01*
X68397162Y-40852683D01*
X68258090Y-40636559D01*
X68045890Y-40491569D01*
X67794000Y-40440560D01*
X66778000Y-40440560D01*
X66542683Y-40484838D01*
X66326559Y-40623910D01*
X66181569Y-40836110D01*
X66143457Y-41024314D01*
X66135000Y-40979371D01*
X66135000Y-40088000D01*
X66117496Y-40000000D01*
X66048604Y-39653655D01*
X65861538Y-39373691D01*
X68990000Y-39373691D01*
X68990000Y-39714250D01*
X69148750Y-39873000D01*
X70123000Y-39873000D01*
X70123000Y-39023750D01*
X70377000Y-39023750D01*
X70377000Y-39873000D01*
X71351250Y-39873000D01*
X71510000Y-39714250D01*
X71510000Y-39373691D01*
X71413327Y-39140302D01*
X71234699Y-38961673D01*
X71001310Y-38865000D01*
X70535750Y-38865000D01*
X70377000Y-39023750D01*
X70123000Y-39023750D01*
X69964250Y-38865000D01*
X69498690Y-38865000D01*
X69265301Y-38961673D01*
X69086673Y-39140302D01*
X68990000Y-39373691D01*
X65861538Y-39373691D01*
X65802566Y-39285434D01*
X65214566Y-38697434D01*
X65016122Y-38564838D01*
X64846346Y-38451397D01*
X64412000Y-38365000D01*
X60311431Y-38365000D01*
X60250000Y-38352560D01*
X59385000Y-38352560D01*
X59385000Y-34250000D01*
X59298603Y-33815654D01*
X59052566Y-33447434D01*
X58634975Y-33029843D01*
X58635284Y-32676205D01*
X58432391Y-32185167D01*
X61064838Y-32185167D01*
X61206883Y-32528943D01*
X61240000Y-32562118D01*
X61240000Y-33437537D01*
X61207808Y-33469673D01*
X61065162Y-33813201D01*
X61064838Y-34185167D01*
X61206883Y-34528943D01*
X61469673Y-34792192D01*
X61813201Y-34934838D01*
X62185167Y-34935162D01*
X62523760Y-34795259D01*
X62523760Y-36516000D01*
X62568038Y-36751317D01*
X62707110Y-36967441D01*
X62919310Y-37112431D01*
X63171200Y-37163440D01*
X66828800Y-37163440D01*
X67064117Y-37119162D01*
X67280241Y-36980090D01*
X67425231Y-36767890D01*
X67476240Y-36516000D01*
X67476240Y-34484000D01*
X67431962Y-34248683D01*
X67292890Y-34032559D01*
X67080690Y-33887569D01*
X66828800Y-33836560D01*
X63171200Y-33836560D01*
X62935883Y-33880838D01*
X62935104Y-33881339D01*
X62935162Y-33814833D01*
X62793117Y-33471057D01*
X62760000Y-33437882D01*
X62760000Y-32562463D01*
X62792192Y-32530327D01*
X62934838Y-32186799D01*
X62935162Y-31814833D01*
X62793117Y-31471057D01*
X62530327Y-31207808D01*
X62186799Y-31065162D01*
X61814833Y-31064838D01*
X61471057Y-31206883D01*
X61207808Y-31469673D01*
X61065162Y-31813201D01*
X61064838Y-32185167D01*
X58432391Y-32185167D01*
X58386894Y-32075057D01*
X57927363Y-31614722D01*
X57326648Y-31365284D01*
X56676205Y-31364716D01*
X56075057Y-31613106D01*
X55614722Y-32072637D01*
X55365284Y-32673352D01*
X55364716Y-33323795D01*
X55613106Y-33924943D01*
X56072637Y-34385278D01*
X56673352Y-34634716D01*
X57029895Y-34635027D01*
X57115000Y-34720132D01*
X57115000Y-38938569D01*
X57102560Y-39000000D01*
X57102560Y-40000000D01*
X57146838Y-40235317D01*
X57285910Y-40451441D01*
X57498110Y-40596431D01*
X57750000Y-40647440D01*
X60250000Y-40647440D01*
X60316113Y-40635000D01*
X61760975Y-40635000D01*
X61667673Y-40728301D01*
X61571000Y-40961690D01*
X61571000Y-41818250D01*
X61729750Y-41977000D01*
X62587000Y-41977000D01*
X62587000Y-41957000D01*
X62841000Y-41957000D01*
X62841000Y-41977000D01*
X62861000Y-41977000D01*
X62861000Y-42231000D01*
X62841000Y-42231000D01*
X62841000Y-42251000D01*
X62587000Y-42251000D01*
X62587000Y-42231000D01*
X61729750Y-42231000D01*
X61571000Y-42389750D01*
X61571000Y-43246310D01*
X61667673Y-43479699D01*
X61826373Y-43638398D01*
X61509654Y-43701397D01*
X61273845Y-43858960D01*
X61141434Y-43947434D01*
X59752308Y-45336560D01*
X59186000Y-45336560D01*
X58950683Y-45380838D01*
X58734559Y-45519910D01*
X58589569Y-45732110D01*
X58538560Y-45984000D01*
X58538560Y-48016000D01*
X58582838Y-48251317D01*
X58721910Y-48467441D01*
X58813000Y-48529680D01*
X58813000Y-49624705D01*
X58614722Y-49822637D01*
X58365284Y-50423352D01*
X58364716Y-51073795D01*
X58613106Y-51674943D01*
X59072637Y-52135278D01*
X59673352Y-52384716D01*
X60323795Y-52385284D01*
X60924943Y-52136894D01*
X61385278Y-51677363D01*
X61634716Y-51076648D01*
X61635284Y-50426205D01*
X61386894Y-49825057D01*
X61083000Y-49520631D01*
X61083000Y-48530565D01*
X61161441Y-48480090D01*
X61306431Y-48267890D01*
X61357440Y-48016000D01*
X61357440Y-46941692D01*
X61840560Y-46458572D01*
X61840560Y-48016000D01*
X61884838Y-48251317D01*
X62023910Y-48467441D01*
X62236110Y-48612431D01*
X62488000Y-48663440D01*
X64012000Y-48663440D01*
X64247317Y-48619162D01*
X64463441Y-48480090D01*
X64608431Y-48267890D01*
X64659440Y-48016000D01*
X64659440Y-47195692D01*
X65288560Y-46566572D01*
X65288560Y-48016000D01*
X65332838Y-48251317D01*
X65471910Y-48467441D01*
X65563000Y-48529680D01*
X65563000Y-53698000D01*
X65649397Y-54132346D01*
X65665299Y-54156145D01*
X65664682Y-54863403D01*
X65943455Y-55538086D01*
X66459199Y-56054730D01*
X67133395Y-56334681D01*
X67863403Y-56335318D01*
X68538086Y-56056545D01*
X69054730Y-55540801D01*
X69334681Y-54866605D01*
X69335202Y-54269930D01*
X73552566Y-50052566D01*
X73657558Y-49895434D01*
X73798603Y-49684346D01*
X73885000Y-49250000D01*
X73885000Y-41403666D01*
X73962599Y-41519801D01*
X74892334Y-42449536D01*
X74816655Y-42830000D01*
X74930729Y-43403489D01*
X75255585Y-43889670D01*
X75269913Y-43899243D01*
X75248683Y-43903238D01*
X75032559Y-44042310D01*
X74887569Y-44254510D01*
X74836560Y-44506400D01*
X74836560Y-46233600D01*
X74880838Y-46468917D01*
X75019910Y-46685041D01*
X75232110Y-46830031D01*
X75484000Y-46881040D01*
X77290000Y-46881040D01*
X77290000Y-58290000D01*
X52710000Y-58290000D01*
X52710000Y-55797175D01*
X61382430Y-55797175D01*
X61505565Y-56084788D01*
X62187734Y-56344707D01*
X62917443Y-56323786D01*
X63494435Y-56084788D01*
X63617570Y-55797175D01*
X62500000Y-54679605D01*
X61382430Y-55797175D01*
X52710000Y-55797175D01*
X52710000Y-54187734D01*
X60655293Y-54187734D01*
X60676214Y-54917443D01*
X60915212Y-55494435D01*
X61202825Y-55617570D01*
X62320395Y-54500000D01*
X62679605Y-54500000D01*
X63797175Y-55617570D01*
X64084788Y-55494435D01*
X64344707Y-54812266D01*
X64323786Y-54082557D01*
X64084788Y-53505565D01*
X63797175Y-53382430D01*
X62679605Y-54500000D01*
X62320395Y-54500000D01*
X61202825Y-53382430D01*
X60915212Y-53505565D01*
X60655293Y-54187734D01*
X52710000Y-54187734D01*
X52710000Y-53202825D01*
X61382430Y-53202825D01*
X62500000Y-54320395D01*
X63617570Y-53202825D01*
X63494435Y-52915212D01*
X62812266Y-52655293D01*
X62082557Y-52676214D01*
X61505565Y-52915212D01*
X61382430Y-53202825D01*
X52710000Y-53202825D01*
X52710000Y-42785750D01*
X57115000Y-42785750D01*
X57115000Y-43126309D01*
X57211673Y-43359698D01*
X57390301Y-43538327D01*
X57623690Y-43635000D01*
X58714250Y-43635000D01*
X58873000Y-43476250D01*
X58873000Y-42627000D01*
X59127000Y-42627000D01*
X59127000Y-43476250D01*
X59285750Y-43635000D01*
X60376310Y-43635000D01*
X60609699Y-43538327D01*
X60788327Y-43359698D01*
X60885000Y-43126309D01*
X60885000Y-42785750D01*
X60726250Y-42627000D01*
X59127000Y-42627000D01*
X58873000Y-42627000D01*
X57273750Y-42627000D01*
X57115000Y-42785750D01*
X52710000Y-42785750D01*
X52710000Y-41873691D01*
X57115000Y-41873691D01*
X57115000Y-42214250D01*
X57273750Y-42373000D01*
X58873000Y-42373000D01*
X58873000Y-41523750D01*
X59127000Y-41523750D01*
X59127000Y-42373000D01*
X60726250Y-42373000D01*
X60885000Y-42214250D01*
X60885000Y-41873691D01*
X60788327Y-41640302D01*
X60609699Y-41461673D01*
X60376310Y-41365000D01*
X59285750Y-41365000D01*
X59127000Y-41523750D01*
X58873000Y-41523750D01*
X58714250Y-41365000D01*
X57623690Y-41365000D01*
X57390301Y-41461673D01*
X57211673Y-41640302D01*
X57115000Y-41873691D01*
X52710000Y-41873691D01*
X52710000Y-24705610D01*
X53464570Y-24705610D01*
X53464570Y-25344999D01*
X53561243Y-25578388D01*
X53739871Y-25757017D01*
X53973260Y-25853690D01*
X54714250Y-25853690D01*
X54873000Y-25694940D01*
X54873000Y-24546860D01*
X55127000Y-24546860D01*
X55127000Y-25694940D01*
X55285750Y-25853690D01*
X56026740Y-25853690D01*
X56260129Y-25757017D01*
X56438757Y-25578388D01*
X56535430Y-25344999D01*
X56535430Y-24705610D01*
X56376680Y-24546860D01*
X55127000Y-24546860D01*
X54873000Y-24546860D01*
X53623320Y-24546860D01*
X53464570Y-24705610D01*
X52710000Y-24705610D01*
X52710000Y-19710000D01*
X54108015Y-19710000D01*
X54065162Y-19813201D01*
M02*
