G04 #@! TF.FileFunction,Legend,Bot*
%FSLAX46Y46*%
G04 Gerber Fmt 4.6, Leading zero omitted, Abs format (unit mm)*
G04 Created by KiCad (PCBNEW 4.0.2-stable) date Fri May 27 18:17:46 2016*
%MOMM*%
G01*
G04 APERTURE LIST*
%ADD10C,0.100000*%
%ADD11C,0.200000*%
%ADD12C,0.250000*%
%ADD13C,0.300000*%
%ADD14C,0.500000*%
%ADD15C,0.150000*%
%ADD16C,0.010000*%
G04 APERTURE END LIST*
D10*
D11*
X74421904Y-32268000D02*
X74517142Y-32220381D01*
X74659999Y-32220381D01*
X74802857Y-32268000D01*
X74898095Y-32363238D01*
X74945714Y-32458476D01*
X74993333Y-32648952D01*
X74993333Y-32791810D01*
X74945714Y-32982286D01*
X74898095Y-33077524D01*
X74802857Y-33172762D01*
X74659999Y-33220381D01*
X74564761Y-33220381D01*
X74421904Y-33172762D01*
X74374285Y-33125143D01*
X74374285Y-32791810D01*
X74564761Y-32791810D01*
X73945714Y-33220381D02*
X73945714Y-32220381D01*
X73374285Y-33220381D01*
X73374285Y-32220381D01*
X72898095Y-33220381D02*
X72898095Y-32220381D01*
X72660000Y-32220381D01*
X72517142Y-32268000D01*
X72421904Y-32363238D01*
X72374285Y-32458476D01*
X72326666Y-32648952D01*
X72326666Y-32791810D01*
X72374285Y-32982286D01*
X72421904Y-33077524D01*
X72517142Y-33172762D01*
X72660000Y-33220381D01*
X72898095Y-33220381D01*
X74421905Y-34760381D02*
X73850476Y-34760381D01*
X74136191Y-35760381D02*
X74136191Y-34760381D01*
X73612381Y-34760381D02*
X72945714Y-35760381D01*
X72945714Y-34760381D02*
X73612381Y-35760381D01*
X73826666Y-38300381D02*
X74160000Y-37824190D01*
X74398095Y-38300381D02*
X74398095Y-37300381D01*
X74017142Y-37300381D01*
X73921904Y-37348000D01*
X73874285Y-37395619D01*
X73826666Y-37490857D01*
X73826666Y-37633714D01*
X73874285Y-37728952D01*
X73921904Y-37776571D01*
X74017142Y-37824190D01*
X74398095Y-37824190D01*
X73493333Y-37300381D02*
X72826666Y-38300381D01*
X72826666Y-37300381D02*
X73493333Y-38300381D01*
X74207619Y-40840381D02*
X74540953Y-40364190D01*
X74779048Y-40840381D02*
X74779048Y-39840381D01*
X74398095Y-39840381D01*
X74302857Y-39888000D01*
X74255238Y-39935619D01*
X74207619Y-40030857D01*
X74207619Y-40173714D01*
X74255238Y-40268952D01*
X74302857Y-40316571D01*
X74398095Y-40364190D01*
X74779048Y-40364190D01*
X73826667Y-40792762D02*
X73683810Y-40840381D01*
X73445714Y-40840381D01*
X73350476Y-40792762D01*
X73302857Y-40745143D01*
X73255238Y-40649905D01*
X73255238Y-40554667D01*
X73302857Y-40459429D01*
X73350476Y-40411810D01*
X73445714Y-40364190D01*
X73636191Y-40316571D01*
X73731429Y-40268952D01*
X73779048Y-40221333D01*
X73826667Y-40126095D01*
X73826667Y-40030857D01*
X73779048Y-39935619D01*
X73731429Y-39888000D01*
X73636191Y-39840381D01*
X73398095Y-39840381D01*
X73255238Y-39888000D01*
X72969524Y-39840381D02*
X72398095Y-39840381D01*
X72683810Y-40840381D02*
X72683810Y-39840381D01*
X74802857Y-42380381D02*
X74231428Y-42380381D01*
X74517143Y-43380381D02*
X74517143Y-42380381D01*
X73945714Y-43332762D02*
X73802857Y-43380381D01*
X73564761Y-43380381D01*
X73469523Y-43332762D01*
X73421904Y-43285143D01*
X73374285Y-43189905D01*
X73374285Y-43094667D01*
X73421904Y-42999429D01*
X73469523Y-42951810D01*
X73564761Y-42904190D01*
X73755238Y-42856571D01*
X73850476Y-42808952D01*
X73898095Y-42761333D01*
X73945714Y-42666095D01*
X73945714Y-42570857D01*
X73898095Y-42475619D01*
X73850476Y-42428000D01*
X73755238Y-42380381D01*
X73517142Y-42380381D01*
X73374285Y-42428000D01*
X73088571Y-42380381D02*
X72517142Y-42380381D01*
X72802857Y-43380381D02*
X72802857Y-42380381D01*
X74488095Y-44952381D02*
X73869047Y-44952381D01*
X74202381Y-45333333D01*
X74059523Y-45333333D01*
X73964285Y-45380952D01*
X73916666Y-45428571D01*
X73869047Y-45523810D01*
X73869047Y-45761905D01*
X73916666Y-45857143D01*
X73964285Y-45904762D01*
X74059523Y-45952381D01*
X74345238Y-45952381D01*
X74440476Y-45904762D01*
X74488095Y-45857143D01*
X73583333Y-44952381D02*
X73250000Y-45952381D01*
X72916666Y-44952381D01*
X72678571Y-44952381D02*
X72059523Y-44952381D01*
X72392857Y-45333333D01*
X72249999Y-45333333D01*
X72154761Y-45380952D01*
X72107142Y-45428571D01*
X72059523Y-45523810D01*
X72059523Y-45761905D01*
X72107142Y-45857143D01*
X72154761Y-45904762D01*
X72249999Y-45952381D01*
X72535714Y-45952381D01*
X72630952Y-45904762D01*
X72678571Y-45857143D01*
D12*
X58666667Y-56547619D02*
X58619048Y-56500000D01*
X58523810Y-56452381D01*
X58285714Y-56452381D01*
X58190476Y-56500000D01*
X58142857Y-56547619D01*
X58095238Y-56642857D01*
X58095238Y-56738095D01*
X58142857Y-56880952D01*
X58714286Y-57452381D01*
X58095238Y-57452381D01*
X57476191Y-56452381D02*
X57380952Y-56452381D01*
X57285714Y-56500000D01*
X57238095Y-56547619D01*
X57190476Y-56642857D01*
X57142857Y-56833333D01*
X57142857Y-57071429D01*
X57190476Y-57261905D01*
X57238095Y-57357143D01*
X57285714Y-57404762D01*
X57380952Y-57452381D01*
X57476191Y-57452381D01*
X57571429Y-57404762D01*
X57619048Y-57357143D01*
X57666667Y-57261905D01*
X57714286Y-57071429D01*
X57714286Y-56833333D01*
X57666667Y-56642857D01*
X57619048Y-56547619D01*
X57571429Y-56500000D01*
X57476191Y-56452381D01*
X56190476Y-57452381D02*
X56761905Y-57452381D01*
X56476191Y-57452381D02*
X56476191Y-56452381D01*
X56571429Y-56595238D01*
X56666667Y-56690476D01*
X56761905Y-56738095D01*
X55333333Y-56452381D02*
X55523810Y-56452381D01*
X55619048Y-56500000D01*
X55666667Y-56547619D01*
X55761905Y-56690476D01*
X55809524Y-56880952D01*
X55809524Y-57261905D01*
X55761905Y-57357143D01*
X55714286Y-57404762D01*
X55619048Y-57452381D01*
X55428571Y-57452381D01*
X55333333Y-57404762D01*
X55285714Y-57357143D01*
X55238095Y-57261905D01*
X55238095Y-57023810D01*
X55285714Y-56928571D01*
X55333333Y-56880952D01*
X55428571Y-56833333D01*
X55619048Y-56833333D01*
X55714286Y-56880952D01*
X55761905Y-56928571D01*
X55809524Y-57023810D01*
X54619048Y-56452381D02*
X54523809Y-56452381D01*
X54428571Y-56500000D01*
X54380952Y-56547619D01*
X54333333Y-56642857D01*
X54285714Y-56833333D01*
X54285714Y-57071429D01*
X54333333Y-57261905D01*
X54380952Y-57357143D01*
X54428571Y-57404762D01*
X54523809Y-57452381D01*
X54619048Y-57452381D01*
X54714286Y-57404762D01*
X54761905Y-57357143D01*
X54809524Y-57261905D01*
X54857143Y-57071429D01*
X54857143Y-56833333D01*
X54809524Y-56642857D01*
X54761905Y-56547619D01*
X54714286Y-56500000D01*
X54619048Y-56452381D01*
X53380952Y-56452381D02*
X53857143Y-56452381D01*
X53904762Y-56928571D01*
X53857143Y-56880952D01*
X53761905Y-56833333D01*
X53523809Y-56833333D01*
X53428571Y-56880952D01*
X53380952Y-56928571D01*
X53333333Y-57023810D01*
X53333333Y-57261905D01*
X53380952Y-57357143D01*
X53428571Y-57404762D01*
X53523809Y-57452381D01*
X53761905Y-57452381D01*
X53857143Y-57404762D01*
X53904762Y-57357143D01*
X75916667Y-52707143D02*
X75964286Y-52754762D01*
X76107143Y-52802381D01*
X76202381Y-52802381D01*
X76345239Y-52754762D01*
X76440477Y-52659524D01*
X76488096Y-52564286D01*
X76535715Y-52373810D01*
X76535715Y-52230952D01*
X76488096Y-52040476D01*
X76440477Y-51945238D01*
X76345239Y-51850000D01*
X76202381Y-51802381D01*
X76107143Y-51802381D01*
X75964286Y-51850000D01*
X75916667Y-51897619D01*
X75059524Y-52802381D02*
X75059524Y-52278571D01*
X75107143Y-52183333D01*
X75202381Y-52135714D01*
X75392858Y-52135714D01*
X75488096Y-52183333D01*
X75059524Y-52754762D02*
X75154762Y-52802381D01*
X75392858Y-52802381D01*
X75488096Y-52754762D01*
X75535715Y-52659524D01*
X75535715Y-52564286D01*
X75488096Y-52469048D01*
X75392858Y-52421429D01*
X75154762Y-52421429D01*
X75059524Y-52373810D01*
X74583334Y-52135714D02*
X74583334Y-53135714D01*
X74583334Y-52183333D02*
X74488096Y-52135714D01*
X74297619Y-52135714D01*
X74202381Y-52183333D01*
X74154762Y-52230952D01*
X74107143Y-52326190D01*
X74107143Y-52611905D01*
X74154762Y-52707143D01*
X74202381Y-52754762D01*
X74297619Y-52802381D01*
X74488096Y-52802381D01*
X74583334Y-52754762D01*
X73821429Y-52135714D02*
X73440477Y-52135714D01*
X73678572Y-51802381D02*
X73678572Y-52659524D01*
X73630953Y-52754762D01*
X73535715Y-52802381D01*
X73440477Y-52802381D01*
X72964286Y-52802381D02*
X73059524Y-52754762D01*
X73107143Y-52707143D01*
X73154762Y-52611905D01*
X73154762Y-52326190D01*
X73107143Y-52230952D01*
X73059524Y-52183333D01*
X72964286Y-52135714D01*
X72821428Y-52135714D01*
X72726190Y-52183333D01*
X72678571Y-52230952D01*
X72630952Y-52326190D01*
X72630952Y-52611905D01*
X72678571Y-52707143D01*
X72726190Y-52754762D01*
X72821428Y-52802381D01*
X72964286Y-52802381D01*
X71773809Y-52135714D02*
X71773809Y-52802381D01*
X72202381Y-52135714D02*
X72202381Y-52659524D01*
X72154762Y-52754762D01*
X72059524Y-52802381D01*
X71916666Y-52802381D01*
X71821428Y-52754762D01*
X71773809Y-52707143D01*
X70869047Y-52754762D02*
X70964285Y-52802381D01*
X71154762Y-52802381D01*
X71250000Y-52754762D01*
X71297619Y-52707143D01*
X71345238Y-52611905D01*
X71345238Y-52326190D01*
X71297619Y-52230952D01*
X71250000Y-52183333D01*
X71154762Y-52135714D01*
X70964285Y-52135714D01*
X70869047Y-52183333D01*
X70440476Y-52802381D02*
X70440476Y-51802381D01*
X70011904Y-52802381D02*
X70011904Y-52278571D01*
X70059523Y-52183333D01*
X70154761Y-52135714D01*
X70297619Y-52135714D01*
X70392857Y-52183333D01*
X70440476Y-52230952D01*
X74511904Y-54452381D02*
X74988095Y-54452381D01*
X74988095Y-53452381D01*
X73749999Y-54452381D02*
X73749999Y-53928571D01*
X73797618Y-53833333D01*
X73892856Y-53785714D01*
X74083333Y-53785714D01*
X74178571Y-53833333D01*
X73749999Y-54404762D02*
X73845237Y-54452381D01*
X74083333Y-54452381D01*
X74178571Y-54404762D01*
X74226190Y-54309524D01*
X74226190Y-54214286D01*
X74178571Y-54119048D01*
X74083333Y-54071429D01*
X73845237Y-54071429D01*
X73749999Y-54023810D01*
X73273809Y-54452381D02*
X73273809Y-53785714D01*
X73273809Y-53880952D02*
X73226190Y-53833333D01*
X73130952Y-53785714D01*
X72988094Y-53785714D01*
X72892856Y-53833333D01*
X72845237Y-53928571D01*
X72845237Y-54452381D01*
X72845237Y-53928571D02*
X72797618Y-53833333D01*
X72702380Y-53785714D01*
X72559523Y-53785714D01*
X72464285Y-53833333D01*
X72416666Y-53928571D01*
X72416666Y-54452381D01*
X71940476Y-53785714D02*
X71940476Y-54785714D01*
X71940476Y-53833333D02*
X71845238Y-53785714D01*
X71654761Y-53785714D01*
X71559523Y-53833333D01*
X71511904Y-53880952D01*
X71464285Y-53976190D01*
X71464285Y-54261905D01*
X71511904Y-54357143D01*
X71559523Y-54404762D01*
X71654761Y-54452381D01*
X71845238Y-54452381D01*
X71940476Y-54404762D01*
X75464286Y-56054762D02*
X75321429Y-56102381D01*
X75083333Y-56102381D01*
X74988095Y-56054762D01*
X74940476Y-56007143D01*
X74892857Y-55911905D01*
X74892857Y-55816667D01*
X74940476Y-55721429D01*
X74988095Y-55673810D01*
X75083333Y-55626190D01*
X75273810Y-55578571D01*
X75369048Y-55530952D01*
X75416667Y-55483333D01*
X75464286Y-55388095D01*
X75464286Y-55292857D01*
X75416667Y-55197619D01*
X75369048Y-55150000D01*
X75273810Y-55102381D01*
X75035714Y-55102381D01*
X74892857Y-55150000D01*
X74559524Y-55435714D02*
X74369048Y-56102381D01*
X74178571Y-55626190D01*
X73988095Y-56102381D01*
X73797619Y-55435714D01*
X73416667Y-56102381D02*
X73416667Y-55435714D01*
X73416667Y-55102381D02*
X73464286Y-55150000D01*
X73416667Y-55197619D01*
X73369048Y-55150000D01*
X73416667Y-55102381D01*
X73416667Y-55197619D01*
X73083334Y-55435714D02*
X72702382Y-55435714D01*
X72940477Y-55102381D02*
X72940477Y-55959524D01*
X72892858Y-56054762D01*
X72797620Y-56102381D01*
X72702382Y-56102381D01*
X71940476Y-56054762D02*
X72035714Y-56102381D01*
X72226191Y-56102381D01*
X72321429Y-56054762D01*
X72369048Y-56007143D01*
X72416667Y-55911905D01*
X72416667Y-55626190D01*
X72369048Y-55530952D01*
X72321429Y-55483333D01*
X72226191Y-55435714D01*
X72035714Y-55435714D01*
X71940476Y-55483333D01*
X71511905Y-56102381D02*
X71511905Y-55102381D01*
X71083333Y-56102381D02*
X71083333Y-55578571D01*
X71130952Y-55483333D01*
X71226190Y-55435714D01*
X71369048Y-55435714D01*
X71464286Y-55483333D01*
X71511905Y-55530952D01*
D13*
X60428571Y-21107143D02*
X60214285Y-21178571D01*
X59857142Y-21178571D01*
X59714285Y-21107143D01*
X59642856Y-21035714D01*
X59571428Y-20892857D01*
X59571428Y-20750000D01*
X59642856Y-20607143D01*
X59714285Y-20535714D01*
X59857142Y-20464286D01*
X60142856Y-20392857D01*
X60285714Y-20321429D01*
X60357142Y-20250000D01*
X60428571Y-20107143D01*
X60428571Y-19964286D01*
X60357142Y-19821429D01*
X60285714Y-19750000D01*
X60142856Y-19678571D01*
X59785714Y-19678571D01*
X59571428Y-19750000D01*
D11*
X61118034Y-20500000D02*
G75*
G03X61118034Y-20500000I-1118034J0D01*
G01*
D14*
X64000000Y-20500000D02*
X66000000Y-20500000D01*
D11*
X66118034Y-20500000D02*
G75*
G03X66118034Y-20500000I-1118034J0D01*
G01*
X71118034Y-20500000D02*
G75*
G03X71118034Y-20500000I-1118034J0D01*
G01*
D14*
X69000000Y-20500000D02*
X71000000Y-20500000D01*
X70000000Y-19500000D02*
X70000000Y-21500000D01*
D15*
X75200000Y-46920000D02*
X75200000Y-45370000D01*
X76500000Y-46920000D02*
X75200000Y-46920000D01*
X80691000Y-45497000D02*
X86533000Y-45497000D01*
X86533000Y-45497000D02*
X86533000Y-45243000D01*
X86533000Y-45243000D02*
X80691000Y-45243000D01*
X80691000Y-45243000D02*
X80691000Y-45370000D01*
X80691000Y-45370000D02*
X86533000Y-45370000D01*
X78024000Y-45624000D02*
X77643000Y-45624000D01*
X78024000Y-45116000D02*
X77643000Y-45116000D01*
X78024000Y-43084000D02*
X77643000Y-43084000D01*
X78024000Y-42576000D02*
X77643000Y-42576000D01*
X78024000Y-40544000D02*
X77643000Y-40544000D01*
X78024000Y-40036000D02*
X77643000Y-40036000D01*
X78024000Y-32416000D02*
X77643000Y-32416000D01*
X78024000Y-32924000D02*
X77643000Y-32924000D01*
X78024000Y-34956000D02*
X77643000Y-34956000D01*
X78024000Y-35464000D02*
X77643000Y-35464000D01*
X78024000Y-37496000D02*
X77643000Y-37496000D01*
X78024000Y-38004000D02*
X77643000Y-38004000D01*
X78024000Y-46640000D02*
X80564000Y-46640000D01*
X78024000Y-44100000D02*
X80564000Y-44100000D01*
X78024000Y-44100000D02*
X78024000Y-41560000D01*
X78024000Y-41560000D02*
X80564000Y-41560000D01*
X80564000Y-43084000D02*
X86660000Y-43084000D01*
X86660000Y-43084000D02*
X86660000Y-42576000D01*
X86660000Y-42576000D02*
X80564000Y-42576000D01*
X80564000Y-41560000D02*
X80564000Y-44100000D01*
X80564000Y-44100000D02*
X80564000Y-46640000D01*
X86660000Y-45116000D02*
X80564000Y-45116000D01*
X86660000Y-45624000D02*
X86660000Y-45116000D01*
X80564000Y-45624000D02*
X86660000Y-45624000D01*
X78024000Y-44100000D02*
X80564000Y-44100000D01*
X78024000Y-46640000D02*
X78024000Y-44100000D01*
X78024000Y-36480000D02*
X80564000Y-36480000D01*
X78024000Y-36480000D02*
X78024000Y-33940000D01*
X78024000Y-33940000D02*
X80564000Y-33940000D01*
X80564000Y-35464000D02*
X86660000Y-35464000D01*
X86660000Y-35464000D02*
X86660000Y-34956000D01*
X86660000Y-34956000D02*
X80564000Y-34956000D01*
X80564000Y-33940000D02*
X80564000Y-36480000D01*
X80564000Y-31400000D02*
X80564000Y-33940000D01*
X86660000Y-32416000D02*
X80564000Y-32416000D01*
X86660000Y-32924000D02*
X86660000Y-32416000D01*
X80564000Y-32924000D02*
X86660000Y-32924000D01*
X78024000Y-31400000D02*
X80564000Y-31400000D01*
X78024000Y-33940000D02*
X78024000Y-31400000D01*
X78024000Y-33940000D02*
X80564000Y-33940000D01*
X78024000Y-39020000D02*
X80564000Y-39020000D01*
X78024000Y-39020000D02*
X78024000Y-36480000D01*
X78024000Y-36480000D02*
X80564000Y-36480000D01*
X80564000Y-38004000D02*
X86660000Y-38004000D01*
X86660000Y-38004000D02*
X86660000Y-37496000D01*
X86660000Y-37496000D02*
X80564000Y-37496000D01*
X80564000Y-36480000D02*
X80564000Y-39020000D01*
X80564000Y-39020000D02*
X80564000Y-41560000D01*
X86660000Y-40036000D02*
X80564000Y-40036000D01*
X86660000Y-40544000D02*
X86660000Y-40036000D01*
X80564000Y-40544000D02*
X86660000Y-40544000D01*
X78024000Y-39020000D02*
X80564000Y-39020000D01*
X78024000Y-41560000D02*
X78024000Y-39020000D01*
X78024000Y-41560000D02*
X80564000Y-41560000D01*
X58650000Y-39500000D02*
X58650000Y-38500000D01*
X60350000Y-38500000D02*
X60350000Y-39500000D01*
X63349760Y-29549160D02*
X63349760Y-29500900D01*
X64050800Y-26750180D02*
X63349760Y-26750180D01*
X63349760Y-26750180D02*
X63349760Y-26999100D01*
X63349760Y-29549160D02*
X63349760Y-29749820D01*
X63349760Y-29749820D02*
X64050800Y-29749820D01*
X75875000Y-23550000D02*
X75875000Y-22350000D01*
X74125000Y-22350000D02*
X74125000Y-23550000D01*
X55875000Y-23600000D02*
X55875000Y-22400000D01*
X54125000Y-22400000D02*
X54125000Y-23600000D01*
X65350000Y-44125000D02*
X64150000Y-44125000D01*
X64150000Y-45875000D02*
X65350000Y-45875000D01*
X68150000Y-36725000D02*
X68150000Y-41175000D01*
X61400000Y-35200000D02*
X61400000Y-41175000D01*
D16*
G36*
X56171198Y-52424482D02*
X56121130Y-52467787D01*
X56095418Y-52561149D01*
X56093343Y-52723451D01*
X56114183Y-52973579D01*
X56157220Y-53330417D01*
X56221733Y-53812851D01*
X56278113Y-54226774D01*
X56340714Y-54688985D01*
X56395181Y-55094684D01*
X56438162Y-55418598D01*
X56466303Y-55635455D01*
X56476250Y-55719846D01*
X56546073Y-55737173D01*
X56719232Y-55735067D01*
X56773048Y-55731197D01*
X57069845Y-55706562D01*
X57262688Y-55012192D01*
X57350914Y-54712719D01*
X57427113Y-54487156D01*
X57480076Y-54367167D01*
X57494638Y-54356928D01*
X57531394Y-54446657D01*
X57595583Y-54652095D01*
X57675555Y-54935089D01*
X57706675Y-55051298D01*
X57879607Y-55706562D01*
X58165670Y-55730932D01*
X58357961Y-55734662D01*
X58448712Y-55674702D01*
X58493341Y-55511163D01*
X58496511Y-55492807D01*
X58530639Y-55282061D01*
X58578712Y-54971014D01*
X58636305Y-54589870D01*
X58698988Y-54168828D01*
X58762334Y-53738093D01*
X58821915Y-53327866D01*
X58873303Y-52968349D01*
X58912071Y-52689745D01*
X58933789Y-52522254D01*
X58936875Y-52489148D01*
X58869580Y-52441592D01*
X58713112Y-52416604D01*
X58535603Y-52416269D01*
X58405184Y-52442675D01*
X58377888Y-52472031D01*
X58365971Y-52569211D01*
X58335863Y-52791512D01*
X58291977Y-53106919D01*
X58238724Y-53483420D01*
X58232974Y-53523750D01*
X58091422Y-54515937D01*
X57954845Y-54039687D01*
X57877409Y-53772361D01*
X57814602Y-53560356D01*
X57784750Y-53464218D01*
X57690739Y-53397241D01*
X57505635Y-53365416D01*
X57480676Y-53365000D01*
X57339498Y-53371148D01*
X57248230Y-53411618D01*
X57182217Y-53519446D01*
X57116805Y-53727668D01*
X57066010Y-53920625D01*
X56989323Y-54191166D01*
X56920859Y-54388868D01*
X56874158Y-54475202D01*
X56870740Y-54476250D01*
X56844395Y-54402064D01*
X56808485Y-54199043D01*
X56767366Y-53896491D01*
X56725392Y-53523710D01*
X56717384Y-53444375D01*
X56615187Y-52412500D01*
X56347281Y-52412500D01*
X56246341Y-52412348D01*
X56171198Y-52424482D01*
X56171198Y-52424482D01*
G37*
X56171198Y-52424482D02*
X56121130Y-52467787D01*
X56095418Y-52561149D01*
X56093343Y-52723451D01*
X56114183Y-52973579D01*
X56157220Y-53330417D01*
X56221733Y-53812851D01*
X56278113Y-54226774D01*
X56340714Y-54688985D01*
X56395181Y-55094684D01*
X56438162Y-55418598D01*
X56466303Y-55635455D01*
X56476250Y-55719846D01*
X56546073Y-55737173D01*
X56719232Y-55735067D01*
X56773048Y-55731197D01*
X57069845Y-55706562D01*
X57262688Y-55012192D01*
X57350914Y-54712719D01*
X57427113Y-54487156D01*
X57480076Y-54367167D01*
X57494638Y-54356928D01*
X57531394Y-54446657D01*
X57595583Y-54652095D01*
X57675555Y-54935089D01*
X57706675Y-55051298D01*
X57879607Y-55706562D01*
X58165670Y-55730932D01*
X58357961Y-55734662D01*
X58448712Y-55674702D01*
X58493341Y-55511163D01*
X58496511Y-55492807D01*
X58530639Y-55282061D01*
X58578712Y-54971014D01*
X58636305Y-54589870D01*
X58698988Y-54168828D01*
X58762334Y-53738093D01*
X58821915Y-53327866D01*
X58873303Y-52968349D01*
X58912071Y-52689745D01*
X58933789Y-52522254D01*
X58936875Y-52489148D01*
X58869580Y-52441592D01*
X58713112Y-52416604D01*
X58535603Y-52416269D01*
X58405184Y-52442675D01*
X58377888Y-52472031D01*
X58365971Y-52569211D01*
X58335863Y-52791512D01*
X58291977Y-53106919D01*
X58238724Y-53483420D01*
X58232974Y-53523750D01*
X58091422Y-54515937D01*
X57954845Y-54039687D01*
X57877409Y-53772361D01*
X57814602Y-53560356D01*
X57784750Y-53464218D01*
X57690739Y-53397241D01*
X57505635Y-53365416D01*
X57480676Y-53365000D01*
X57339498Y-53371148D01*
X57248230Y-53411618D01*
X57182217Y-53519446D01*
X57116805Y-53727668D01*
X57066010Y-53920625D01*
X56989323Y-54191166D01*
X56920859Y-54388868D01*
X56874158Y-54475202D01*
X56870740Y-54476250D01*
X56844395Y-54402064D01*
X56808485Y-54199043D01*
X56767366Y-53896491D01*
X56725392Y-53523710D01*
X56717384Y-53444375D01*
X56615187Y-52412500D01*
X56347281Y-52412500D01*
X56246341Y-52412348D01*
X56171198Y-52424482D01*
G36*
X54948282Y-52412796D02*
X54489576Y-52429260D01*
X54151103Y-52489530D01*
X53896631Y-52610568D01*
X53689929Y-52809338D01*
X53502409Y-53089704D01*
X53335213Y-53486518D01*
X53242484Y-53945053D01*
X53232414Y-54399969D01*
X53295824Y-54737619D01*
X53486014Y-55139881D01*
X53762633Y-55433201D01*
X54139641Y-55625697D01*
X54630996Y-55725483D01*
X55027657Y-55744506D01*
X55682500Y-55746250D01*
X55682500Y-54495330D01*
X55047500Y-54495330D01*
X55047500Y-55442703D01*
X54710157Y-55386653D01*
X54439127Y-55323643D01*
X54196701Y-55238913D01*
X54156885Y-55220105D01*
X53965029Y-55079484D01*
X53844600Y-54931834D01*
X53782654Y-54773112D01*
X53725902Y-54557462D01*
X53683869Y-54335999D01*
X53666080Y-54159834D01*
X53682059Y-54080080D01*
X53685750Y-54079375D01*
X53766645Y-54128133D01*
X53905081Y-54246157D01*
X53912378Y-54252982D01*
X54098866Y-54372013D01*
X54370909Y-54440102D01*
X54572338Y-54460960D01*
X55047500Y-54495330D01*
X55682500Y-54495330D01*
X55682500Y-52968125D01*
X55047500Y-52968125D01*
X55047500Y-54020289D01*
X54714095Y-53966975D01*
X54480517Y-53914037D01*
X54307033Y-53847435D01*
X54277532Y-53828049D01*
X54204712Y-53684936D01*
X54177411Y-53462461D01*
X54196386Y-53233570D01*
X54262389Y-53071207D01*
X54269626Y-53063374D01*
X54404119Y-53003948D01*
X54625098Y-52970686D01*
X54706188Y-52968125D01*
X55047500Y-52968125D01*
X55682500Y-52968125D01*
X55682500Y-52412500D01*
X54948282Y-52412796D01*
X54948282Y-52412796D01*
G37*
X54948282Y-52412796D02*
X54489576Y-52429260D01*
X54151103Y-52489530D01*
X53896631Y-52610568D01*
X53689929Y-52809338D01*
X53502409Y-53089704D01*
X53335213Y-53486518D01*
X53242484Y-53945053D01*
X53232414Y-54399969D01*
X53295824Y-54737619D01*
X53486014Y-55139881D01*
X53762633Y-55433201D01*
X54139641Y-55625697D01*
X54630996Y-55725483D01*
X55027657Y-55744506D01*
X55682500Y-55746250D01*
X55682500Y-54495330D01*
X55047500Y-54495330D01*
X55047500Y-55442703D01*
X54710157Y-55386653D01*
X54439127Y-55323643D01*
X54196701Y-55238913D01*
X54156885Y-55220105D01*
X53965029Y-55079484D01*
X53844600Y-54931834D01*
X53782654Y-54773112D01*
X53725902Y-54557462D01*
X53683869Y-54335999D01*
X53666080Y-54159834D01*
X53682059Y-54080080D01*
X53685750Y-54079375D01*
X53766645Y-54128133D01*
X53905081Y-54246157D01*
X53912378Y-54252982D01*
X54098866Y-54372013D01*
X54370909Y-54440102D01*
X54572338Y-54460960D01*
X55047500Y-54495330D01*
X55682500Y-54495330D01*
X55682500Y-52968125D01*
X55047500Y-52968125D01*
X55047500Y-54020289D01*
X54714095Y-53966975D01*
X54480517Y-53914037D01*
X54307033Y-53847435D01*
X54277532Y-53828049D01*
X54204712Y-53684936D01*
X54177411Y-53462461D01*
X54196386Y-53233570D01*
X54262389Y-53071207D01*
X54269626Y-53063374D01*
X54404119Y-53003948D01*
X54625098Y-52970686D01*
X54706188Y-52968125D01*
X55047500Y-52968125D01*
X55682500Y-52968125D01*
X55682500Y-52412500D01*
X54948282Y-52412796D01*
M02*
